<svg width="256" height="256" viewBox="0 0 256 256" xmlns="http://www.w3.org/2000/svg">
  <defs>
    <linearGradient id="scrollGradient" x1="0%" y1="0%" x2="100%" y2="100%">
      <stop offset="0%" style="stop-color:#8B4513;stop-opacity:1" />
      <stop offset="100%" style="stop-color:#D2691E;stop-opacity:1" />
    </linearGradient>
  </defs>
  
  <!-- Scroll background -->
  <rect x="32" y="48" width="192" height="160" rx="8" fill="url(#scrollGradient)" />
  
  <!-- Scroll layers -->
  <rect x="48" y="64" width="160" height="40" fill="#FFF8DC" opacity="0.8" />
  <rect x="48" y="112" width="160" height="40" fill="#FFF8DC" opacity="0.9" />
  <rect x="48" y="160" width="160" height="40" fill="#FFF8DC" />
  
  <!-- Decorative dots -->
  <circle cx="64" cy="84" r="4" fill="#8B4513" />
  <circle cx="88" cy="84" r="4" fill="#8B4513" />
  <circle cx="112" cy="84" r="4" fill="#8B4513" />
  <circle cx="64" cy="132" r="4" fill="#8B4513" />
  <circle cx="88" cy="132" r="4" fill="#8B4513" />
  <circle cx="112" cy="132" r="4" fill="#8B4513" />
  <circle cx="64" cy="180" r="4" fill="#8B4513" />
  <circle cx="88" cy="180" r="4" fill="#8B4513" />
  <circle cx="112" cy="180" r="4" fill="#8B4513" />
  
  <!-- Scroll rod circles -->
  <circle cx="32" cy="64" r="8" fill="#654321" />
  <circle cx="32" cy="128" r="8" fill="#654321" />
  <circle cx="32" cy="192" r="8" fill="#654321" />
  <circle cx="224" cy="64" r="8" fill="#654321" />
  <circle cx="224" cy="128" r="8" fill="#654321" />
  <circle cx="224" cy="192" r="8" fill="#654321" />
</svg>